<svg xmlns="http://www.w3.org/2000/svg" viewBox="0 0 1440 320" width="100%" height="100%">
  <!-- Orange Thin Wave -->
  <path fill="#FF9933" d="M0,96L30,112C60,128,120,160,180,181.3C240,203,300,213,360,213.3C420,213,480,203,540,192C600,181,660,160,720,128C780,96,840,64,900,64C960,64,1020,96,1080,117.3C1140,139,1200,181,1260,181.3C1320,181,1380,139,1410,117.3L1440,96L1440,320L1410,320C1380,320,1320,320,1260,320C1200,320,1140,320,1080,320C1020,320,960,320,900,320C840,320,780,320,720,320C660,320,600,320,540,320C480,320,420,320,360,320C300,320,240,320,180,320C120,320,60,320,30,320L0,320Z"></path>
  
  <!-- White Thin Wave -->
  <path fill="#FFFFFF" d="M0,160L30,154.7C60,149,120,139,180,138.7C240,138,300,149,360,160C420,171,480,181,540,181.3C600,181,660,171,720,160C780,149,840,138,900,128C960,117,1020,107,1080,96C1140,85,1200,75,1260,75.3C1320,75,1380,85,1410,96L1440,106L1440,320L1410,320C1380,320,1320,320,1260,320C1200,320,1140,320,1080,320C1020,320,960,320,900,320C840,320,780,320,720,320C660,320,600,320,540,320C480,320,420,320,360,320C300,320,240,320,180,320C120,320,60,320,30,320L0,320Z"></path>
  
  <!-- Green Thin Wave -->
  <path fill="#138808" d="M0,224L30,218.7C60,213,120,203,180,202.7C240,202,300,213,360,213.3C420,213,480,202,540,202C600,202,660,213,720,224C780,235,840,235,900,224C960,213,1020,181,1080,160C1140,139,1200,139,1260,160C1320,181,1380,213,1410,224L1440,235L1440,320L1410,320C1380,320,1320,320,1260,320C1200,320,1140,320,1080,320C1020,320,960,320,900,320C840,320,780,320,720,320C660,320,600,320,540,320C480,320,420,320,360,320C300,320,240,320,180,320C120,320,60,320,30,320L0,320Z"></path>
</svg>
